<svg width="12" height="14" viewBox="0 0 12 14" fill="none" xmlns="http://www.w3.org/2000/svg">
<path d="M10.2 7.28C10.6774 7.28 11.1352 7.457 11.4728 7.77206C11.8104 8.08712 12 8.51444 12 8.96V9.52C12 11.7275 9.768 14 6 14C2.232 14 0 11.7275 0 9.52V8.96C0 8.51444 0.189642 8.08712 0.527208 7.77206C0.864773 7.457 1.32261 7.28 1.8 7.28H10.2ZM10.2 8.4H1.8C1.64087 8.4 1.48826 8.459 1.37574 8.56402C1.26321 8.66904 1.2 8.81148 1.2 8.96V9.52C1.2 11.1306 2.9184 12.88 6 12.88C9.0816 12.88 10.8 11.1306 10.8 9.52V8.96C10.8 8.81148 10.7368 8.66904 10.6243 8.56402C10.5117 8.459 10.3591 8.4 10.2 8.4ZM6 0C6.87521 0 7.71458 0.324499 8.33345 0.902111C8.95232 1.47972 9.3 2.26313 9.3 3.08C9.3 3.89687 8.95232 4.68028 8.33345 5.25789C7.71458 5.8355 6.87521 6.16 6 6.16C5.12479 6.16 4.28542 5.8355 3.66655 5.25789C3.04768 4.68028 2.7 3.89687 2.7 3.08C2.7 2.26313 3.04768 1.47972 3.66655 0.902111C4.28542 0.324499 5.12479 0 6 0ZM6 1.12C5.44305 1.12 4.9089 1.3265 4.51508 1.69407C4.12125 2.06164 3.9 2.56018 3.9 3.08C3.9 3.59982 4.12125 4.09836 4.51508 4.46593C4.9089 4.8335 5.44305 5.04 6 5.04C6.55695 5.04 7.0911 4.8335 7.48492 4.46593C7.87875 4.09836 8.1 3.59982 8.1 3.08C8.1 2.56018 7.87875 2.06164 7.48492 1.69407C7.0911 1.3265 6.55695 1.12 6 1.12Z" fill="#F2F2F2"/>
</svg>
