<svg width="18" height="16" viewBox="0 0 18 16" fill="none" xmlns="http://www.w3.org/2000/svg">
<path d="M8.18066 0C8.39774 0 8.6062 0.0843504 8.75977 0.234375C8.91333 0.384544 8.99997 0.588413 9 0.800781C9 1.0132 8.91336 1.21699 8.75977 1.36719L2.99805 7H17.2275C17.4324 7.00009 17.6286 7.10556 17.7734 7.29297C17.9184 7.4805 18 7.73478 18 8C18 8.26522 17.9184 8.5195 17.7734 8.70703C17.6286 8.89444 17.4324 8.99991 17.2275 9H2.99805L8.75977 14.6328C8.91336 14.783 9 14.9868 9 15.1992C8.99997 15.4116 8.91333 15.6155 8.75977 15.7656C8.6062 15.9156 8.39774 16 8.18066 16C7.96358 15.9999 7.75507 15.9157 7.60156 15.7656L0.240234 8.56641C0.164079 8.49212 0.103735 8.40379 0.0625 8.30664C0.0212645 8.20946 2.35678e-08 8.10521 0 8C0 7.89479 0.0212645 7.79054 0.0625 7.69336C0.103735 7.59621 0.164079 7.50788 0.240234 7.43359L7.60156 0.234375C7.75507 0.0842556 7.96358 9.00615e-05 8.18066 0Z" fill="black" fill-opacity="0.2"/>
</svg>
