<svg width="16" height="14" viewBox="0 0 16 14" fill="none" xmlns="http://www.w3.org/2000/svg">
<path d="M13.3333 2.8L12.5813 3.5896L13.9573 5.04H8C7.21171 5.04012 6.45151 5.34743 5.86667 5.9024V2.1448L7.248 3.5896L8 2.8L5.33333 0L2.66667 2.8L3.41867 3.5896L4.8 2.1448V8.4C4.80021 9.22769 5.09288 10.0259 5.62133 10.64H2.04267L3.41867 9.1896L2.66667 8.4L0 11.2L2.66667 14L3.41867 13.2104L2.04267 11.76H8C8.61819 11.7611 9.22341 11.5739 9.74226 11.221C10.2611 10.8681 10.6713 10.3647 10.9231 9.77193C11.1749 9.17912 11.2575 8.52233 11.1609 7.88121C11.0642 7.2401 10.7925 6.64219 10.3787 6.16H13.9573L12.5813 7.6104L13.3333 8.4L16 5.6L13.3333 2.8ZM10.1333 8.4C10.1333 8.84303 10.0082 9.27611 9.7738 9.64448C9.53939 10.0128 9.20621 10.2999 8.81639 10.4695C8.42658 10.639 7.99763 10.6834 7.58381 10.597C7.16998 10.5105 6.78986 10.2972 6.49151 9.98392C6.19315 9.67065 5.98997 9.27152 5.90766 8.837C5.82534 8.40248 5.86759 7.9521 6.02906 7.54279C6.19052 7.13348 6.46396 6.78364 6.81478 6.53751C7.16561 6.29137 7.57807 6.16 8 6.16C8.56558 6.16074 9.10779 6.39698 9.50772 6.8169C9.90764 7.23682 10.1326 7.80614 10.1333 8.4Z" fill="black"/>
</svg>
