<svg width="12" height="12" viewBox="0 0 12 12" fill="none" xmlns="http://www.w3.org/2000/svg">
<path d="M2.62503 0.00010485C2.72448 0.00010485 2.81987 0.0396137 2.89019 0.10994C2.96052 0.180266 3.00003 0.275649 3.00003 0.375105V0.750105H9.00003V0.375105C9.00003 0.275649 9.03954 0.180266 9.10986 0.10994C9.18019 0.0396137 9.27557 0.00010485 9.37503 0.00010485C9.47448 0.00010485 9.56987 0.0396137 9.64019 0.10994C9.71052 0.180266 9.75003 0.275649 9.75003 0.375105V0.750105H10.5C10.8979 0.750105 11.2794 0.90814 11.5607 1.18944C11.842 1.47075 12 1.85228 12 2.2501V10.5001C12 10.8979 11.842 11.2795 11.5607 11.5608C11.2794 11.8421 10.8979 12.0001 10.5 12.0001H1.50003C1.1022 12.0001 0.720673 11.8421 0.439368 11.5608C0.158064 11.2795 2.83501e-05 10.8979 2.83501e-05 10.5001V3.7501H12V3.0001H2.83501e-05V2.2501C2.83501e-05 1.85228 0.158064 1.47075 0.439368 1.18944C0.720673 0.90814 1.1022 0.750105 1.50003 0.750105H2.25003V0.375105C2.25003 0.275649 2.28954 0.180266 2.35986 0.10994C2.43019 0.0396137 2.52557 0.00010485 2.62503 0.00010485Z" fill="black"/>
</svg>
