<svg width="21" height="22" viewBox="0 0 21 22" fill="none" xmlns="http://www.w3.org/2000/svg">
<path fill-rule="evenodd" clip-rule="evenodd" d="M5.4373 4.71429V5.5H3.32933C2.31089 5.5 1.45794 6.25848 1.35079 7.25895L0.010898 19.8304C-0.0182441 20.1042 0.011219 20.381 0.0973763 20.6428C0.183534 20.9046 0.324461 21.1456 0.511018 21.3502C0.697574 21.5548 0.925594 21.7183 1.18029 21.8303C1.43498 21.9422 1.71066 22 1.98944 22H18.4331C18.7119 22 18.9876 21.9422 19.2422 21.8303C19.4969 21.7183 19.725 21.5548 19.9115 21.3502C20.0981 21.1456 20.239 20.9046 20.3252 20.6428C20.4113 20.381 20.4408 20.1042 20.4116 19.8304L19.0717 7.25895C19.0204 6.77615 18.7897 6.32925 18.4244 6.00444C18.059 5.67963 17.5848 5.49993 17.0932 5.5H14.9852V4.71429C14.9852 3.46398 14.4823 2.26488 13.587 1.38078C12.6917 0.496682 11.4774 0 10.2113 0C8.94513 0 7.73086 0.496682 6.83557 1.38078C5.94027 2.26488 5.4373 3.46398 5.4373 4.71429ZM10.2113 1.57143C9.36718 1.57143 8.55766 1.90255 7.9608 2.49195C7.36394 3.08135 7.02863 3.88075 7.02863 4.71429V5.5H13.3939V4.71429C13.3939 3.88075 13.0586 3.08135 12.4617 2.49195C11.8649 1.90255 11.0554 1.57143 10.2113 1.57143ZM7.02863 10.2143C7.02863 11.0478 7.36394 11.8472 7.9608 12.4366C8.55766 13.026 9.36718 13.3571 10.2113 13.3571C11.0554 13.3571 11.8649 13.026 12.4617 12.4366C13.0586 11.8472 13.3939 11.0478 13.3939 10.2143V9.42857C13.3939 9.22019 13.4777 9.02034 13.627 8.87299C13.7762 8.72564 13.9785 8.64286 14.1896 8.64286C14.4006 8.64286 14.603 8.72564 14.7522 8.87299C14.9014 9.02034 14.9852 9.22019 14.9852 9.42857V10.2143C14.9852 11.4646 14.4823 12.6637 13.587 13.5478C12.6917 14.4319 11.4774 14.9286 10.2113 14.9286C8.94513 14.9286 7.73086 14.4319 6.83557 13.5478C5.94027 12.6637 5.4373 11.4646 5.4373 10.2143V9.42857C5.4373 9.22019 5.52113 9.02034 5.67035 8.87299C5.81956 8.72564 6.02194 8.64286 6.23296 8.64286C6.44399 8.64286 6.64637 8.72564 6.79558 8.87299C6.9448 9.02034 7.02863 9.22019 7.02863 9.42857V10.2143Z" fill="#42855B"/>
</svg>
