<svg width="200" height="38" viewBox="0 0 200 38" fill="none" xmlns="http://www.w3.org/2000/svg">
<rect x="7.04224" y="13.7222" width="20.4235" height="13.3704" fill="white"/>
<path fill-rule="evenodd" clip-rule="evenodd" d="M9.37466 8.14286V9.5H5.74023C3.98429 9.5 2.51369 10.8101 2.32895 12.5382L0.0187896 34.2525C-0.0314554 34.7254 0.0193431 35.2035 0.16789 35.6557C0.316437 36.1079 0.559415 36.5242 0.881065 36.8776C1.20271 37.2309 1.59585 37.5135 2.03498 37.7068C2.4741 37.9002 2.94941 38.0001 3.43007 38H31.7812C32.2619 38.0001 32.7372 37.9002 33.1763 37.7068C33.6154 37.5135 34.0086 37.2309 34.3302 36.8776C34.6519 36.5242 34.8948 36.1079 35.0434 35.6557C35.1919 35.2035 35.2427 34.7254 35.1925 34.2525L32.8823 12.5382C32.7937 11.7043 32.3961 10.9323 31.7662 10.3713C31.1362 9.81027 30.3186 9.49988 29.471 9.5H25.8366V8.14286C25.8366 5.98324 24.9694 3.91207 23.4258 2.38499C21.8822 0.857906 19.7886 0 17.6056 0C15.4226 0 13.3291 0.857906 11.7855 2.38499C10.2419 3.91207 9.37466 5.98324 9.37466 8.14286ZM17.6056 2.71429C16.1503 2.71429 14.7546 3.28622 13.7255 4.30428C12.6964 5.32233 12.1183 6.70311 12.1183 8.14286V9.5H23.0929V8.14286C23.0929 6.70311 22.5148 5.32233 21.4858 4.30428C20.4567 3.28622 19.061 2.71429 17.6056 2.71429ZM12.1183 17.6429C12.1183 19.0826 12.6964 20.4634 13.7255 21.4814C14.7546 22.4995 16.1503 23.0714 17.6056 23.0714C19.061 23.0714 20.4567 22.4995 21.4858 21.4814C22.5148 20.4634 23.0929 19.0826 23.0929 17.6429V16.2857C23.0929 15.9258 23.2375 15.5806 23.4947 15.3261C23.752 15.0716 24.1009 14.9286 24.4648 14.9286C24.8286 14.9286 25.1775 15.0716 25.4348 15.3261C25.6921 15.5806 25.8366 15.9258 25.8366 16.2857V17.6429C25.8366 19.8025 24.9694 21.8736 23.4258 23.4007C21.8822 24.9278 19.7886 25.7857 17.6056 25.7857C15.4226 25.7857 13.3291 24.9278 11.7855 23.4007C10.2419 21.8736 9.37466 19.8025 9.37466 17.6429V16.2857C9.37466 15.9258 9.51919 15.5806 9.77646 15.3261C10.0337 15.0716 10.3827 14.9286 10.7465 14.9286C11.1103 14.9286 11.4593 15.0716 11.7165 15.3261C11.9738 15.5806 12.1183 15.9258 12.1183 16.2857V17.6429Z" fill="#42855B"/>
<path d="M55.1571 26.4284C55.1571 26.0619 55.0899 25.7189 54.9554 25.3994C54.8306 25.0799 54.6145 24.7792 54.3072 24.4973C53.9903 24.2248 53.5773 23.9758 53.0684 23.7503C52.569 23.5153 51.9448 23.2992 51.1957 23.1019C50.0337 22.7918 49.0109 22.4159 48.1274 21.9743C47.2535 21.5326 46.5381 21.0487 45.9811 20.5225C45.4241 19.9962 45.0015 19.4136 44.7134 18.7747C44.4349 18.1357 44.2957 17.4403 44.2957 16.6886C44.2957 15.8241 44.483 15.0394 44.8575 14.3347C45.232 13.6299 45.7506 13.0285 46.4132 12.5305C47.0759 12.0324 47.8585 11.6519 48.7613 11.3888C49.664 11.1163 50.6435 10.98 51.6999 10.98C52.7947 10.98 53.7934 11.135 54.6961 11.4451C55.6085 11.7552 56.3911 12.1875 57.0442 12.7419C57.6972 13.3057 58.2062 13.9729 58.5711 14.7434C58.936 15.514 59.1185 16.3597 59.1185 17.2806H55.1715C55.1523 16.8201 55.0659 16.3973 54.9122 16.012C54.7682 15.6267 54.5521 15.2931 54.264 15.0112C53.9663 14.7387 53.5965 14.5273 53.1548 14.3769C52.7226 14.2172 52.2137 14.1373 51.6279 14.1373C51.0901 14.1373 50.6099 14.2031 50.1874 14.3347C49.7744 14.4568 49.4239 14.6307 49.1358 14.8562C48.8477 15.0911 48.6268 15.3683 48.4732 15.6878C48.3291 15.9979 48.2571 16.3362 48.2571 16.7027C48.2571 17.0879 48.3531 17.4356 48.5452 17.7457C48.7468 18.0558 49.035 18.333 49.4095 18.5773C49.784 18.831 50.2354 19.0613 50.7636 19.268C51.3013 19.4747 51.9064 19.6673 52.5786 19.8459C53.2988 20.0432 53.9855 20.2828 54.6385 20.5647C55.2915 20.8467 55.8918 21.1708 56.4391 21.5373C57.265 22.1387 57.9229 22.8388 58.4126 23.6375C58.9024 24.4362 59.1473 25.3571 59.1473 26.4002C59.1473 27.3023 58.96 28.1057 58.5855 28.8104C58.2206 29.5058 57.7116 30.0931 57.0586 30.5723C56.4055 31.061 55.6277 31.4322 54.7249 31.6859C53.8222 31.9302 52.8379 32.0523 51.7719 32.0523C50.7251 32.0523 49.688 31.902 48.6604 31.6013C47.6425 31.2912 46.7542 30.8402 45.9955 30.2482C45.2752 29.6656 44.7038 28.9796 44.2813 28.1903C43.8683 27.4009 43.6619 26.4753 43.6619 25.4135H47.6377C47.6569 26.0337 47.7673 26.5646 47.969 27.0063C48.1706 27.4479 48.4539 27.8097 48.8189 28.0916C49.1742 28.3735 49.6015 28.5802 50.1009 28.7118C50.6099 28.8433 51.1669 28.9091 51.7719 28.9091C52.3097 28.9091 52.7851 28.848 53.198 28.7259C53.6206 28.6037 53.9759 28.4346 54.264 28.2184C54.5521 28.0023 54.773 27.7439 54.9266 27.4432C55.0803 27.1331 55.1571 26.7948 55.1571 26.4284Z" fill="white"/>
<path d="M66.1338 18.6337C66.3354 18.3424 66.5563 18.0746 66.7964 17.8303C67.0461 17.5766 67.3054 17.3557 67.5743 17.1678C67.9872 16.8765 68.4434 16.651 68.9427 16.4912C69.4421 16.3315 69.9703 16.2516 70.5273 16.2516C71.3436 16.2516 72.0926 16.3738 72.7745 16.6181C73.4563 16.853 74.0421 17.2242 74.5319 17.7316C75.0217 18.239 75.401 18.8921 75.6699 19.6908C75.9484 20.4802 76.0876 21.434 76.0876 22.5522V31.7845H72.083V22.524C72.083 21.979 72.011 21.5091 71.867 21.1145C71.7325 20.7198 71.5356 20.4003 71.2764 20.156C71.0171 19.9117 70.705 19.7331 70.34 19.6204C69.9751 19.4982 69.5622 19.4371 69.1012 19.4371C68.7459 19.4371 68.4146 19.47 68.1072 19.5358C67.7999 19.6016 67.5214 19.7002 67.2717 19.8318C67.0413 19.9446 66.83 20.0808 66.6379 20.2406C66.4555 20.4003 66.2874 20.5788 66.1338 20.7762V31.7845H62.1291V10.1343H66.1338V18.6337Z" fill="white"/>
<path d="M79.3 24.0181C79.3 22.9092 79.4632 21.885 79.7897 20.9453C80.1163 19.9962 80.5964 19.174 81.2302 18.4787C81.8545 17.7833 82.6179 17.2383 83.5206 16.8436C84.433 16.4489 85.4749 16.2516 86.6465 16.2516C87.8182 16.2516 88.8601 16.4489 89.7724 16.8436C90.6848 17.2383 91.4578 17.7833 92.0917 18.4787C92.7159 19.174 93.1912 19.9962 93.5178 20.9453C93.8443 21.885 94.0075 22.9092 94.0075 24.0181V24.3141C94.0075 25.4323 93.8443 26.4659 93.5178 27.415C93.1912 28.3547 92.7159 29.1722 92.0917 29.8676C91.4674 30.563 90.6992 31.108 89.7868 31.5026C88.8745 31.8879 87.8374 32.0805 86.6754 32.0805C85.5037 32.0805 84.457 31.8879 83.5351 31.5026C82.6227 31.108 81.8545 30.563 81.2302 29.8676C80.5964 29.1722 80.1163 28.3547 79.7897 27.415C79.4632 26.4659 79.3 25.4323 79.3 24.3141V24.0181ZM83.3046 24.3141C83.3046 24.9531 83.367 25.5545 83.4918 26.1183C83.6167 26.6727 83.8136 27.1566 84.0824 27.5701C84.3513 27.9929 84.6971 28.3265 85.1196 28.5708C85.5518 28.8151 86.0703 28.9373 86.6754 28.9373C87.2612 28.9373 87.7653 28.8151 88.1879 28.5708C88.6104 28.3265 88.9562 27.9929 89.2251 27.5701C89.4843 27.1566 89.6764 26.6727 89.8013 26.1183C89.9261 25.5545 89.9885 24.9531 89.9885 24.3141V24.0181C89.9885 23.3979 89.9261 22.8106 89.8013 22.2562C89.6764 21.7018 89.4843 21.2131 89.2251 20.7903C88.9562 20.3674 88.6104 20.0338 88.1879 19.7895C87.7653 19.5452 87.2516 19.423 86.6465 19.423C86.0511 19.423 85.5422 19.5452 85.1196 19.7895C84.6971 20.0338 84.3513 20.3674 84.0824 20.7903C83.8136 21.2131 83.6167 21.7018 83.4918 22.2562C83.367 22.8106 83.3046 23.3979 83.3046 24.0181V24.3141Z" fill="white"/>
<path d="M97.6232 37.6481V16.5335H101.325L101.469 18.0276C101.681 17.7739 101.911 17.5484 102.161 17.351C102.41 17.1443 102.679 16.9658 102.967 16.8154C103.313 16.6369 103.693 16.5006 104.105 16.4067C104.528 16.3033 104.979 16.2516 105.46 16.2516C106.449 16.2516 107.323 16.4395 108.081 16.8154C108.84 17.1819 109.479 17.7034 109.997 18.38C110.516 19.066 110.905 19.8882 111.164 20.8467C111.433 21.7957 111.567 22.8482 111.567 24.004V24.3C111.567 25.4088 111.433 26.4378 111.164 27.3868C110.905 28.3359 110.521 29.1534 110.012 29.8394C109.493 30.5348 108.854 31.0798 108.096 31.4744C107.337 31.8691 106.468 32.0664 105.488 32.0664C104.97 32.0664 104.49 32.0101 104.048 31.8973C103.616 31.7939 103.212 31.6389 102.838 31.4322C102.617 31.3006 102.406 31.155 102.204 30.9952C102.002 30.8355 101.81 30.6569 101.628 30.4596V37.6481H97.6232ZM107.563 24.004C107.563 23.365 107.5 22.7683 107.375 22.2139C107.26 21.6501 107.078 21.1614 106.828 20.748C106.569 20.3439 106.237 20.0244 105.834 19.7895C105.44 19.5546 104.96 19.4371 104.394 19.4371C104.067 19.4371 103.769 19.47 103.5 19.5358C103.232 19.5922 102.987 19.6767 102.766 19.7895C102.516 19.9211 102.295 20.0855 102.103 20.2828C101.921 20.4802 101.762 20.7104 101.628 20.9735V27.3445C101.753 27.5889 101.901 27.8097 102.074 28.007C102.257 28.2044 102.463 28.3735 102.694 28.5144C102.915 28.646 103.169 28.7494 103.457 28.8245C103.745 28.8903 104.067 28.9232 104.422 28.9232C104.989 28.9232 105.469 28.8011 105.863 28.5567C106.266 28.3124 106.593 27.9788 106.842 27.556C107.092 27.1331 107.275 26.6445 107.39 26.0901C107.505 25.5263 107.563 24.9296 107.563 24.3V24.004Z" fill="white"/>
<path d="M126.03 26.4284C126.03 26.0619 125.963 25.7189 125.828 25.3994C125.703 25.0799 125.487 24.7792 125.18 24.4973C124.863 24.2248 124.45 23.9758 123.941 23.7503C123.442 23.5153 122.818 23.2992 122.069 23.1019C120.907 22.7918 119.884 22.4159 119 21.9743C118.126 21.5326 117.411 21.0487 116.854 20.5225C116.297 19.9962 115.874 19.4136 115.586 18.7747C115.308 18.1357 115.169 17.4403 115.169 16.6886C115.169 15.8241 115.356 15.0394 115.73 14.3347C116.105 13.6299 116.623 13.0285 117.286 12.5305C117.949 12.0324 118.731 11.6519 119.634 11.3888C120.537 11.1163 121.516 10.98 122.573 10.98C123.668 10.98 124.666 11.135 125.569 11.4451C126.481 11.7552 127.264 12.1875 127.917 12.7419C128.57 13.3057 129.079 13.9729 129.444 14.7434C129.809 15.514 129.991 16.3597 129.991 17.2806H126.044C126.025 16.8201 125.939 16.3973 125.785 16.012C125.641 15.6267 125.425 15.2931 125.137 15.0112C124.839 14.7387 124.469 14.5273 124.028 14.3769C123.596 14.2172 123.087 14.1373 122.501 14.1373C121.963 14.1373 121.483 14.2031 121.06 14.3347C120.647 14.4568 120.297 14.6307 120.009 14.8562C119.721 15.0911 119.5 15.3683 119.346 15.6878C119.202 15.9979 119.13 16.3362 119.13 16.7027C119.13 17.0879 119.226 17.4356 119.418 17.7457C119.62 18.0558 119.908 18.333 120.282 18.5773C120.657 18.831 121.108 19.0613 121.636 19.268C122.174 19.4747 122.779 19.6673 123.451 19.8459C124.172 20.0432 124.858 20.2828 125.511 20.5647C126.164 20.8467 126.765 21.1708 127.312 21.5373C128.138 22.1387 128.796 22.8388 129.286 23.6375C129.775 24.4362 130.02 25.3571 130.02 26.4002C130.02 27.3023 129.833 28.1057 129.458 28.8104C129.093 29.5058 128.584 30.0931 127.931 30.5723C127.278 31.061 126.501 31.4322 125.598 31.6859C124.695 31.9302 123.711 32.0523 122.645 32.0523C121.598 32.0523 120.561 31.902 119.533 31.6013C118.515 31.2912 117.627 30.8402 116.868 30.2482C116.148 29.6656 115.577 28.9796 115.154 28.1903C114.741 27.4009 114.535 26.4753 114.535 25.4135H118.511C118.53 26.0337 118.64 26.5646 118.842 27.0063C119.044 27.4479 119.327 27.8097 119.692 28.0916C120.047 28.3735 120.474 28.5802 120.974 28.7118C121.483 28.8433 122.04 28.9091 122.645 28.9091C123.183 28.9091 123.658 28.848 124.071 28.7259C124.493 28.6037 124.849 28.4346 125.137 28.2184C125.425 28.0023 125.646 27.7439 125.799 27.4432C125.953 27.1331 126.03 26.7948 126.03 26.4284Z" fill="white"/>
<path d="M134.154 31.7845L131.36 16.5335H135.019L136.373 27.0485L136.646 25.5967L138.332 16.5335H141.011L142.697 25.5545L142.97 27.0063L143.172 25.5263L144.324 16.5335H147.998L145.203 31.7845H141.688L139.974 23.6375L139.643 22.087L137.669 31.7845H134.154Z" fill="white"/>
<path d="M151.786 16.5335H160.271V28.599H164.491V31.7845H151.786V28.599H156.223V19.7331H151.786V16.5335ZM155.935 12.6291C155.935 12.3284 155.988 12.0512 156.093 11.7975C156.209 11.5344 156.367 11.3089 156.569 11.1209C156.77 10.9424 157.01 10.8015 157.289 10.6981C157.577 10.5947 157.894 10.543 158.24 10.543C158.95 10.543 159.512 10.7404 159.925 11.135C160.348 11.5203 160.559 12.0183 160.559 12.6291C160.559 13.2399 160.348 13.7427 159.925 14.1373C159.512 14.5226 158.95 14.7152 158.24 14.7152C157.894 14.7152 157.577 14.6635 157.289 14.5602C157.01 14.4568 156.77 14.3112 156.569 14.1232C156.367 13.9447 156.209 13.7286 156.093 13.4749C155.988 13.2117 155.935 12.9298 155.935 12.6291Z" fill="white"/>
<path d="M172.313 31.7845V19.423H168.222V16.5335H172.313V15.7019C172.313 14.6964 172.477 13.8084 172.803 13.0379C173.13 12.2674 173.595 11.619 174.2 11.0928C174.805 10.5665 175.54 10.1719 176.404 9.90876C177.269 9.63625 178.234 9.5 179.3 9.5C179.636 9.5 179.958 9.5141 180.265 9.54229C180.582 9.56108 180.889 9.58927 181.187 9.62686C181.485 9.66444 181.782 9.70673 182.08 9.75371C182.387 9.8007 182.704 9.85238 183.031 9.90876L182.771 12.9815C182.407 12.9063 181.994 12.8406 181.533 12.7842C181.072 12.7278 180.529 12.6996 179.905 12.6996C179.233 12.6996 178.661 12.7748 178.191 12.9251C177.72 13.0755 177.346 13.2963 177.067 13.5876C176.817 13.8319 176.63 14.1326 176.505 14.4897C176.39 14.8468 176.332 15.2508 176.332 15.7019V16.5335H181.95V19.423H176.332V31.7845H172.313Z" fill="white"/>
<path d="M193.503 12.7983V16.5335H199.323V19.423H193.503V25.9773C193.503 26.5317 193.566 26.9969 193.691 27.3727C193.825 27.7392 194.012 28.0305 194.252 28.2466C194.492 28.4722 194.78 28.6319 195.117 28.7259C195.462 28.8198 195.846 28.8668 196.269 28.8668C196.576 28.8668 196.888 28.8527 197.205 28.8245C197.532 28.7964 197.844 28.7588 198.142 28.7118C198.43 28.6742 198.699 28.6319 198.948 28.5849C199.208 28.5379 199.429 28.491 199.611 28.444L200 31.1362C199.721 31.2959 199.395 31.4369 199.02 31.559C198.646 31.6718 198.247 31.7657 197.825 31.8409C197.402 31.9161 196.96 31.9725 196.499 32.0101C196.048 32.057 195.602 32.0805 195.16 32.0805C194.305 32.0805 193.527 31.9725 192.826 31.7563C192.135 31.5308 191.544 31.1831 191.054 30.7133C190.555 30.2529 190.171 29.6656 189.902 28.9514C189.633 28.2278 189.499 27.3633 189.499 26.3579V19.423H185.941V16.5335H189.499V12.7983H193.503Z" fill="white"/>
</svg>
