<svg width="18" height="14" viewBox="0 0 18 14" fill="none" xmlns="http://www.w3.org/2000/svg">
<path d="M15.3 0H2.7C1.98392 0 1.29716 0.276562 0.790812 0.768845C0.284464 1.26113 0 1.92881 0 2.625V11.375C0 12.0712 0.284464 12.7389 0.790812 13.2312C1.29716 13.7234 1.98392 14 2.7 14H15.3C16.0161 14 16.7028 13.7234 17.2092 13.2312C17.7155 12.7389 18 12.0712 18 11.375V2.625C18 1.92881 17.7155 1.26113 17.2092 0.768845C16.7028 0.276562 16.0161 0 15.3 0ZM15.3 1.75L9.45 5.66125C9.31318 5.73805 9.15798 5.77848 9 5.77848C8.84202 5.77848 8.68682 5.73805 8.55 5.66125L2.7 1.75H15.3Z" fill="#F2F2F2"/>
</svg>
