<svg width="10" height="10" viewBox="0 0 10 10" fill="none" xmlns="http://www.w3.org/2000/svg">
<path fill-rule="evenodd" clip-rule="evenodd" d="M9.19514 4.0018C9.16561 4.00025 9.13605 3.9997 9.1065 4.00015H7.87312C6.86413 4.00015 6 4.86808 6 6.00007C6 7.13207 6.86413 8 7.87362 8H9.10599C9.13689 8 9.16677 8 9.19463 7.9978C9.4029 7.98339 9.59923 7.8874 9.74703 7.72771C9.89483 7.56803 9.98402 7.35555 9.99797 7.12987C10 7.09748 10 7.0629 10 7.03105V4.96909C10 4.93725 10 4.90267 9.99797 4.87028C9.98403 4.64469 9.89491 4.43228 9.74722 4.27261C9.59952 4.11294 9.40332 4.01689 9.19514 4.00234M7.76523 6.53368C8.02507 6.53368 8.23629 6.29542 8.23629 6.00062C8.23629 5.70582 8.02507 5.46757 7.76523 5.46757C7.50538 5.46757 7.29467 5.70582 7.29467 6.00062C7.29467 6.29542 7.50488 6.53368 7.76523 6.53368Z" fill="black"/>
<path fill-rule="evenodd" clip-rule="evenodd" d="M8.89199 8.4C8.90833 8.39945 8.92457 8.40261 8.93941 8.40922C8.95425 8.41584 8.96727 8.42573 8.97743 8.43809C8.98758 8.45045 8.99458 8.46495 8.99787 8.4804C9.00116 8.49585 9.00063 8.51184 8.99635 8.52706C8.90174 8.85271 8.75203 9.13035 8.51161 9.36377C8.16001 9.70588 7.7138 9.85788 7.16275 9.92988C6.6273 10 5.9436 10 5.07946 10H4.0861C3.22246 10 2.53827 10 2.00282 9.92988C1.45176 9.85788 1.00555 9.70588 0.653952 9.36377C0.302349 9.02259 0.146298 8.58823 0.0721736 8.05271C0 7.53129 0 6.86588 0 6.02588V5.97412C0 5.13412 0 4.46824 0.0721736 3.94776C0.146298 3.41176 0.302349 2.97882 0.653464 2.63576C1.00507 2.29412 1.45128 2.14165 2.00233 2.07012C2.53827 2 3.22246 2 4.0861 2H5.07946C5.94311 2 6.6273 2 7.16275 2.07012C7.7138 2.14212 8.16001 2.29412 8.51161 2.63576C8.75203 2.86965 8.90174 3.14729 8.99635 3.47341C9.00054 3.4886 9.001 3.50453 8.99767 3.51993C8.99434 3.53532 8.98732 3.54974 8.97718 3.56205C8.96703 3.57435 8.95405 3.58419 8.93925 3.59078C8.92446 3.59737 8.90827 3.60053 8.89199 3.6H7.70551C6.37225 3.6 5.19748 4.62447 5.19748 6C5.19748 7.37553 6.37274 8.4 7.706 8.4H8.89199ZM1.7624 3.82871C1.71597 3.82889 1.67004 3.8379 1.62721 3.85522C1.58439 3.87253 1.54552 3.89782 1.51283 3.92963C1.48014 3.96144 1.45425 3.99916 1.43666 4.04062C1.41907 4.08209 1.41012 4.12649 1.41031 4.17129C1.41031 4.36094 1.56783 4.51435 1.7624 4.51435H3.64282C3.83788 4.51435 3.9954 4.36094 3.9954 4.17129C3.99566 4.08077 3.95867 3.99384 3.89256 3.9296C3.82646 3.86537 3.73663 3.82908 3.64282 3.82871H1.7624Z" fill="black"/>
<path d="M3 0.996064L4.05029 0.286132C4.32436 0.100292 4.65621 0 4.99705 0C5.33789 0 5.66974 0.100292 5.94381 0.286132L7 1C6.558 0.984257 6.0645 0.984257 5.52434 0.984257H4.36033C3.86576 0.984257 3.41143 0.984257 3 0.996064Z" fill="black"/>
</svg>
