<svg width="12" height="12" viewBox="0 0 12 12" fill="none" xmlns="http://www.w3.org/2000/svg">
<path d="M6.687 0.252096C6.50133 0.090204 6.25551 0 6 0C5.74449 0 5.49867 0.090204 5.313 0.252096L0.469001 4.47426C0.320682 4.6037 0.202582 4.75971 0.121937 4.93273C0.0412911 5.10575 -0.000201572 5.29213 7.36252e-07 5.48046V10.6175C0.000265837 10.9843 0.158418 11.3359 0.439694 11.5951C0.72097 11.8544 1.10235 12 1.5 12H3C3.39783 12 3.77936 11.8542 4.06066 11.5948C4.34197 11.3354 4.5 10.9835 4.5 10.6166V8.31091C4.5 8.18861 4.55268 8.07132 4.64645 7.98484C4.74022 7.89836 4.86739 7.84978 5 7.84978H7C7.13261 7.84978 7.25979 7.89836 7.35355 7.98484C7.44732 8.07132 7.5 8.18861 7.5 8.31091V10.6166C7.5 10.9835 7.65804 11.3354 7.93934 11.5948C8.22064 11.8542 8.60218 12 9 12H10.5C10.8978 12 11.2794 11.8542 11.5607 11.5948C11.842 11.3354 12 10.9835 12 10.6166V5.47954C11.9999 5.2913 11.9582 5.10505 11.8774 4.9322C11.7966 4.75934 11.6784 4.60352 11.53 4.47426L6.687 0.252096Z" fill="black"/>
</svg>
