<svg width="14" height="12" viewBox="0 0 14 12" fill="none" xmlns="http://www.w3.org/2000/svg">
<path d="M11.2471 0.00203409C11.0777 0.0172168 10.9158 0.088831 10.7812 0.208134C10.6466 0.327437 10.545 0.489268 10.489 0.673871C10.433 0.858474 10.4248 1.05786 10.4656 1.2477C10.5064 1.43753 10.5943 1.60959 10.7186 1.74289C11.205 2.30168 11.5908 2.96563 11.8535 3.69656C12.1163 4.4275 12.251 5.211 12.2498 6.00204C12.2506 6.79301 12.1157 7.57638 11.853 8.30726C11.5902 9.03813 11.2047 9.70213 10.7186 10.2612C10.6341 10.3541 10.5666 10.4654 10.52 10.5887C10.4735 10.7121 10.4488 10.8449 10.4474 10.9793C10.4461 11.1138 10.4681 11.2472 10.5122 11.3717C10.5563 11.4962 10.6215 11.6094 10.7042 11.7045C10.7868 11.7995 10.8851 11.8747 10.9932 11.9254C11.1014 11.9761 11.2174 12.0015 11.3342 11.9999C11.451 11.9984 11.5664 11.97 11.6735 11.9164C11.7807 11.8628 11.8774 11.7851 11.9581 11.6878C13.2657 10.1783 14 8.13365 14 6.00204C14 3.87043 13.2657 1.82577 11.9581 0.316234C11.8781 0.218928 11.7821 0.14096 11.6756 0.0868939C11.5692 0.0328279 11.4544 0.00375002 11.3381 0.00136245C11.3077 -0.000454151 11.2774 -0.000454151 11.2471 0.00136245V0.00203409ZM2.55228 0.0221749C2.35837 0.0517747 2.17867 0.155306 2.04188 0.316234C0.734277 1.82577 0 3.87043 0 6.00204C0 8.13365 0.734277 10.1783 2.04188 11.6878C2.12257 11.7851 2.21933 11.8628 2.32648 11.9164C2.43363 11.97 2.549 11.9984 2.66583 11.9999C2.78265 12.0015 2.89856 11.9761 3.00675 11.9254C3.11494 11.8747 3.21323 11.7995 3.29584 11.7045C3.37846 11.6094 3.44372 11.4962 3.48781 11.3717C3.5319 11.2472 3.55391 11.1138 3.55257 10.9793C3.55122 10.8449 3.52654 10.7121 3.47998 10.5887C3.43341 10.4654 3.3659 10.3541 3.28141 10.2612C2.79495 9.70239 2.40925 9.03845 2.14647 8.30751C1.8837 7.57658 1.74904 6.79307 1.75023 6.00204C1.74942 5.21107 1.88426 4.42769 2.14701 3.69682C2.40976 2.96595 2.79526 2.30195 3.28141 1.74289C3.41368 1.59505 3.50199 1.4029 3.53374 1.19386C3.56548 0.984821 3.53905 0.769583 3.4582 0.578865C3.37736 0.388148 3.24623 0.231698 3.08354 0.131847C2.92086 0.0319964 2.73492 -0.00682362 2.55228 0.0221749ZM4.77643 2.24641C4.58459 2.27016 4.40494 2.36622 4.26545 2.51966C3.84215 2.95982 3.50349 3.49701 3.27124 4.09673C3.03899 4.69645 2.91828 5.34544 2.91685 6.00204C2.91685 7.377 3.42432 8.62708 4.24737 9.48509C4.3324 9.57462 4.43191 9.644 4.54024 9.68926C4.64856 9.73453 4.76357 9.7548 4.8787 9.74891C4.99382 9.74301 5.10682 9.71108 5.21122 9.65493C5.31563 9.59878 5.4094 9.51951 5.48719 9.42164C5.56498 9.32378 5.62526 9.20924 5.66459 9.08457C5.70392 8.95989 5.72152 8.82752 5.7164 8.69501C5.71129 8.5625 5.68354 8.43245 5.63475 8.31228C5.58597 8.19212 5.5171 8.08419 5.43207 7.99465C5.18991 7.74316 4.99658 7.43568 4.86471 7.09232C4.73283 6.74896 4.66539 6.37745 4.66677 6.00204C4.66556 5.6265 4.73314 5.25489 4.86511 4.91143C4.99707 4.56798 5.19046 4.2604 5.43265 4.00875C5.57244 3.86878 5.67001 3.68135 5.71132 3.47346C5.75262 3.26558 5.73552 3.04796 5.66248 2.85198C5.58944 2.656 5.46423 2.49176 5.30489 2.38293C5.14555 2.2741 4.96089 2.2263 4.77643 2.24641ZM9.09641 2.24641C8.92288 2.25742 8.75614 2.32766 8.61743 2.44817C8.47872 2.56868 8.37434 2.734 8.31758 2.92305C8.26083 3.11211 8.25427 3.31634 8.29876 3.5097C8.34324 3.70306 8.43674 3.87679 8.56735 4.00875C8.80968 4.26026 9.00317 4.56782 9.13514 4.9113C9.26712 5.25479 9.33462 5.62647 9.33323 6.00204C9.33444 6.37758 9.26686 6.74919 9.13489 7.09264C9.00292 7.4361 8.80954 7.74368 8.56735 7.99533C8.46985 8.07913 8.38862 8.18542 8.32884 8.3074C8.26905 8.42939 8.23203 8.56438 8.22014 8.70376C8.20825 8.84314 8.22175 8.98385 8.25977 9.11688C8.2978 9.24992 8.35952 9.37237 8.44098 9.4764C8.52245 9.58043 8.62187 9.66376 8.7329 9.72107C8.84393 9.77837 8.96413 9.80839 9.08581 9.80921C9.20749 9.81003 9.32798 9.78163 9.43958 9.72582C9.55118 9.67001 9.65145 9.58802 9.73396 9.48509C10.1574 9.04491 10.4963 8.50764 10.7286 7.90779C10.961 7.30795 11.0817 6.6588 11.0832 6.00204C11.0853 5.34666 10.968 4.69805 10.7388 4.0981C10.5097 3.49814 10.1737 2.96019 9.75263 2.51899C9.66534 2.42418 9.56203 2.35106 9.44914 2.30417C9.33625 2.25727 9.21618 2.23762 9.09641 2.24641ZM7 4.78552C6.79098 4.78565 6.58668 4.85711 6.41295 4.99087C6.23921 5.12462 6.10383 5.31466 6.02392 5.53696C5.94401 5.75926 5.92316 6.00384 5.96401 6.23978C6.00486 6.47572 6.10557 6.69242 6.25341 6.86248C6.40125 7.03255 6.58958 7.14834 6.7946 7.19523C6.99961 7.24211 7.2121 7.21798 7.4052 7.12589C7.59829 7.03379 7.76333 6.87787 7.87945 6.67783C7.99556 6.47779 8.05754 6.24261 8.05754 6.00204C8.05777 5.84212 8.03057 5.68372 7.97751 5.53593C7.92444 5.38813 7.84655 5.25384 7.7483 5.14076C7.65006 5.02769 7.53338 4.93804 7.40497 4.87696C7.27656 4.81589 7.13894 4.78526 7 4.78552Z" fill="black"/>
</svg>
