<svg width="12" height="12" viewBox="0 0 12 12" fill="none" xmlns="http://www.w3.org/2000/svg">
<path d="M5.82414 0.175791C5.76852 0.119969 5.7024 0.0756985 5.6296 0.0455289C5.5568 0.0153593 5.47875 -0.000113664 5.39995 6.28572e-07H2.39998C2.32117 -0.000113664 2.24312 0.0153593 2.17032 0.0455289C2.09752 0.0756985 2.0314 0.119969 1.97578 0.175791L0.175799 1.9757C0.119974 2.03132 0.0757016 2.09743 0.0455308 2.17023C0.0153599 2.24303 -0.000113668 2.32107 6.28598e-07 2.39988V5.39972C6.28598e-07 5.55931 0.063 5.7117 0.175799 5.8239L6.17574 11.8236C6.23133 11.8795 6.29743 11.9239 6.37022 11.9541C6.44302 11.9844 6.52109 12 6.59993 12C6.67878 12 6.75684 11.9844 6.82964 11.9541C6.90244 11.9239 6.96854 11.8795 7.02413 11.8236L11.8241 7.02384C11.8798 6.96817 11.9241 6.90205 11.9543 6.82926C11.9845 6.75648 12 6.67845 12 6.59966C12 6.52086 11.9845 6.44284 11.9543 6.37005C11.9241 6.29727 11.8798 6.23115 11.8241 6.17548L5.82414 0.175791ZM3.81176 4.79975C3.67998 4.80304 3.54888 4.77993 3.42617 4.73178C3.30345 4.68363 3.19162 4.61142 3.09724 4.5194C3.00286 4.42738 2.92784 4.3174 2.87661 4.19595C2.82538 4.0745 2.79897 3.94402 2.79893 3.81221C2.79889 3.6804 2.82522 3.54991 2.87638 3.42842C2.92754 3.30694 3.00248 3.19692 3.09681 3.10484C3.19113 3.01276 3.30293 2.94048 3.42561 2.89226C3.54829 2.84404 3.67938 2.82085 3.81116 2.82405C4.06895 2.83033 4.31408 2.93712 4.49422 3.12163C4.67435 3.30614 4.77523 3.55375 4.77531 3.81161C4.77538 4.06947 4.67466 4.31714 4.49464 4.50176C4.31461 4.68638 4.06955 4.79332 3.81176 4.79975Z" fill="black" fill-opacity="0.6"/>
</svg>
