<svg width="8" height="14" viewBox="0 0 8 14" fill="none" xmlns="http://www.w3.org/2000/svg">
<path d="M4.24 6.14444C2.424 5.68556 1.84 5.21111 1.84 4.47222C1.84 3.62444 2.648 3.03333 4 3.03333C5.136 3.03333 5.704 3.45333 5.912 4.12222C6.008 4.43333 6.272 4.66667 6.608 4.66667H6.848C7.376 4.66667 7.752 4.16111 7.568 3.67889C7.232 2.76111 6.448 1.99889 5.2 1.70333V1.16667C5.2 0.521111 4.664 0 4 0C3.336 0 2.8 0.521111 2.8 1.16667V1.68C1.248 2.00667 0 2.98667 0 4.48778C0 6.28444 1.528 7.17889 3.76 7.7C5.76 8.16667 6.16 8.85111 6.16 9.57444C6.16 10.1111 5.768 10.9667 4 10.9667C2.68 10.9667 2 10.5078 1.736 9.85444C1.616 9.55111 1.344 9.33333 1.016 9.33333H0.792C0.256 9.33333 -0.12 9.86222 0.0799999 10.3444C0.536 11.4256 1.6 12.0633 2.8 12.3122V12.8333C2.8 13.4789 3.336 14 4 14C4.664 14 5.2 13.4789 5.2 12.8333V12.3278C6.76 12.04 8 11.1611 8 9.56667C8 7.35778 6.056 6.60333 4.24 6.14444Z" fill="#42855B"/>
</svg>
