<svg width="14" height="14" viewBox="0 0 14 14" fill="none" xmlns="http://www.w3.org/2000/svg">
<path d="M11 9.5V10.5H11.874C11.3195 11.2749 10.5879 11.906 9.74008 12.3409C8.89227 12.7758 7.95283 13.0017 7 13C3.6915 13 1 10.3085 1 7H0C0 10.86 3.14 14 7 14C9.1775 14 11.187 12.9995 12.5 11.3275V12H13.5V9.5H11Z" fill="black"/>
<path d="M10.2525 4.8184L7.258 3.0684C7.18156 3.02369 7.09462 3.00009 7.00607 3C6.91751 2.99991 6.83053 3.02334 6.754 3.0679L3.7485 4.8179C3.67292 4.86189 3.61019 4.92493 3.56659 5.00073C3.52299 5.07653 3.50003 5.16245 3.5 5.2499V8.7499C3.50003 8.83735 3.52299 8.92326 3.56659 8.99907C3.61019 9.07487 3.67292 9.13791 3.7485 9.1819L6.754 10.9319C6.82836 10.9764 6.91337 10.9998 7 10.9999C7.087 10.9999 7.18 10.9774 7.258 10.9314L10.2525 9.1814C10.3278 9.13733 10.3903 9.07431 10.4337 8.99861C10.4771 8.92291 10.5 8.83717 10.5 8.7499V5.2499C10.5 5.16263 10.4771 5.07689 10.4337 5.00119C10.3903 4.92549 10.3278 4.86247 10.2525 4.8184ZM7.0055 4.0784L9.009 5.2499L7.0055 6.4209L4.994 5.2499L7.0055 4.0784ZM4.5 6.1199L6.5 7.2849V9.6274L4.5 8.4624V6.1199ZM7.5 9.6324V7.2909L9.5 6.1219V8.4634L7.5 9.6324Z" fill="black"/>
<path d="M7 6.60301e-06C5.94048 -0.00145106 4.89455 0.238452 3.94157 0.701512C2.9886 1.16457 2.15362 1.83862 1.5 2.67251V2.00001H0.5V4.50001H3V3.50001H2.126C2.68049 2.72513 3.41211 2.09398 4.25992 1.65912C5.10772 1.22425 6.04717 0.998275 7 1.00001C10.3085 1.00001 13 3.69151 13 7.00001H14C14 3.14001 10.86 6.60301e-06 7 6.60301e-06Z" fill="black"/>
</svg>
