<svg width="18" height="20" viewBox="0 0 18 20" fill="none" xmlns="http://www.w3.org/2000/svg">
<path fill-rule="evenodd" clip-rule="evenodd" d="M2.925 8.48675V6.50602C2.925 4.78052 3.56504 3.12569 4.70433 1.90557C5.84361 0.685454 7.38881 0 9 0C10.6112 0 12.1564 0.685454 13.2957 1.90557C14.435 3.12569 15.075 4.78052 15.075 6.50602V8.48675C16.0785 8.56675 16.731 8.76916 17.2089 9.28096C18 10.1272 18 11.4911 18 14.2169C18 16.9427 18 18.3065 17.2089 19.1528C16.4187 20 15.1452 20 12.6 20H5.4C2.8548 20 1.5813 20 0.7911 19.1528C-5.36442e-08 18.3065 0 16.9427 0 14.2169C0 11.4911 -5.36442e-08 10.1272 0.7911 9.28096C1.2681 8.76916 1.9215 8.56675 2.925 8.48675ZM4.275 6.50602C4.275 5.16396 4.77281 3.87687 5.65892 2.92789C6.54503 1.97891 7.74685 1.44578 9 1.44578C10.2531 1.44578 11.455 1.97891 12.3411 2.92789C13.2272 3.87687 13.725 5.16396 13.725 6.50602V8.43759C13.3803 8.43373 13.0059 8.43373 12.6 8.43373H5.4C4.9932 8.43373 4.6197 8.43373 4.275 8.43759V6.50602ZM5.4 15.1807C5.63869 15.1807 5.86761 15.0792 6.0364 14.8984C6.20518 14.7177 6.3 14.4725 6.3 14.2169C6.3 13.9612 6.20518 13.7161 6.0364 13.5353C5.86761 13.3546 5.63869 13.253 5.4 13.253C5.1613 13.253 4.93239 13.3546 4.7636 13.5353C4.59482 13.7161 4.5 13.9612 4.5 14.2169C4.5 14.4725 4.59482 14.7177 4.7636 14.8984C4.93239 15.0792 5.1613 15.1807 5.4 15.1807ZM9 15.1807C9.23869 15.1807 9.46761 15.0792 9.6364 14.8984C9.80518 14.7177 9.9 14.4725 9.9 14.2169C9.9 13.9612 9.80518 13.7161 9.6364 13.5353C9.46761 13.3546 9.23869 13.253 9 13.253C8.7613 13.253 8.53239 13.3546 8.3636 13.5353C8.19482 13.7161 8.1 13.9612 8.1 14.2169C8.1 14.4725 8.19482 14.7177 8.3636 14.8984C8.53239 15.0792 8.7613 15.1807 9 15.1807ZM13.5 14.2169C13.5 14.4725 13.4052 14.7177 13.2364 14.8984C13.0676 15.0792 12.8387 15.1807 12.6 15.1807C12.3613 15.1807 12.1324 15.0792 11.9636 14.8984C11.7948 14.7177 11.7 14.4725 11.7 14.2169C11.7 13.9612 11.7948 13.7161 11.9636 13.5353C12.1324 13.3546 12.3613 13.253 12.6 13.253C12.8387 13.253 13.0676 13.3546 13.2364 13.5353C13.4052 13.7161 13.5 13.9612 13.5 14.2169Z" fill="#F2F2F2"/>
</svg>
