<svg width="12" height="12" viewBox="0 0 12 12" fill="none" xmlns="http://www.w3.org/2000/svg">
<path d="M10.6281 6C10.6281 5.862 10.6219 5.73 10.6095 5.592L11.7573 4.746C12.0041 4.566 12.072 4.23 11.9177 3.966L10.7638 2.028C10.6898 1.90091 10.5701 1.80489 10.4278 1.75837C10.2854 1.71186 10.1304 1.71814 9.99247 1.776L8.66576 2.322C8.43744 2.166 8.19678 2.028 7.94378 1.914L7.76483 0.528C7.72781 0.228 7.46247 0 7.15393 0H4.85224C4.53753 0 4.27219 0.228 4.23517 0.528L4.05622 1.914C3.80321 2.028 3.56256 2.166 3.33424 2.322L2.00753 1.776C1.72367 1.656 1.39045 1.764 1.23618 2.028L0.0822548 3.972C-0.0720139 4.236 -0.00413567 4.566 0.242694 4.752L1.39045 5.598C1.36487 5.86743 1.36487 6.13857 1.39045 6.408L0.242694 7.254C-0.00413567 7.434 -0.0720139 7.77 0.0822548 8.034L1.23618 9.972C1.39045 10.236 1.72367 10.344 2.00753 10.224L3.33424 9.678C3.56256 9.834 3.80321 9.972 4.05622 10.086L4.23517 11.472C4.27219 11.772 4.53753 12 4.84607 12H7.14776C7.4563 12 7.72164 11.772 7.75866 11.472L7.93761 10.086C8.19061 9.972 8.43127 9.834 8.65959 9.678L9.9863 10.224C10.2702 10.344 10.6034 10.236 10.7576 9.972L11.9116 8.034C12.0658 7.77 11.998 7.44 11.7511 7.254L10.6034 6.408C10.6219 6.27 10.6281 6.138 10.6281 6ZM6.02468 8.1C4.83373 8.1 3.86492 7.158 3.86492 6C3.86492 4.842 4.83373 3.9 6.02468 3.9C7.21564 3.9 8.18444 4.842 8.18444 6C8.18444 7.158 7.21564 8.1 6.02468 8.1Z" fill="black" fill-opacity="0.6"/>
</svg>
